<?xml version="1.0" encoding="UTF-8" standalone="no"?>
<!-- Created with Inkscape (http://www.inkscape.org/) -->

<svg
   xmlns:dc="http://purl.org/dc/elements/1.1/"
   xmlns:cc="http://creativecommons.org/ns#"
   xmlns:rdf="http://www.w3.org/1999/02/22-rdf-syntax-ns#"
   xmlns:svg="http://www.w3.org/2000/svg"
   xmlns="http://www.w3.org/2000/svg"
   xmlns:sodipodi="http://sodipodi.sourceforge.net/DTD/sodipodi-0.dtd"
   xmlns:inkscape="http://www.inkscape.org/namespaces/inkscape"
   width="24mm"
   height="24mm"
   viewBox="0 0 85.03937 85.03937"
   id="svg2"
   version="1.1"
   inkscape:version="0.91 r13725"
   sodipodi:docname="icon-3.svg">
  <defs
     id="defs4" />
  <sodipodi:namedview
     id="base"
     pagecolor="#ffffff"
     bordercolor="#666666"
     borderopacity="1.0"
     inkscape:pageopacity="0.0"
     inkscape:pageshadow="2"
     inkscape:zoom="3.959798"
     inkscape:cx="-2.4258827"
     inkscape:cy="-2.765515"
     inkscape:document-units="px"
     inkscape:current-layer="text4136-7"
     showgrid="false"
     fit-margin-top="0"
     fit-margin-left="0"
     fit-margin-right="0"
     fit-margin-bottom="0"
     inkscape:window-width="1858"
     inkscape:window-height="1057"
     inkscape:window-x="-8"
     inkscape:window-y="-8"
     inkscape:window-maximized="1" />
  <metadata
     id="metadata7">
    <rdf:RDF>
      <cc:Work
         rdf:about="">
        <dc:format>image/svg+xml</dc:format>
        <dc:type
           rdf:resource="http://purl.org/dc/dcmitype/StillImage" />
        <dc:title></dc:title>
      </cc:Work>
    </rdf:RDF>
  </metadata>
  <g
     inkscape:label="Layer 1"
     inkscape:groupmode="layer"
     id="layer1"
     transform="translate(-179.8101,-138.73214)">
    <g
       style="font-style:normal;font-variant:normal;font-weight:100;font-stretch:normal;font-size:111.88245392px;line-height:125%;font-family:'AR BONNIE';-inkscape-font-specification:'AR BONNIE Thin';text-align:start;letter-spacing:0px;word-spacing:0px;text-anchor:start;fill:#ffcc00;fill-opacity:1;stroke:none;stroke-width:1px;stroke-linecap:butt;stroke-linejoin:miter;stroke-opacity:1"
       id="text4136"
       transform="matrix(1.0394782,0,0,1.0394782,-9.576687,-7.9197653)">
      <path
         d="m 259.74332,181.41475 q 0,15.77542 -11.18824,26.96367 -11.18825,11.18824 -27.07556,11.18824 -15.77542,0 -27.07555,-10.96448 -11.18825,-11.07636 -11.18825,-26.85178 0,-16.33484 11.30013,-27.52309 11.30013,-11.18824 27.74685,-11.18824 15.66354,0 26.51614,11.30012 10.96448,11.30013 10.96448,27.07556 z m -71.15724,-0.11188 q 0,13.76154 9.51001,23.27155 9.51001,9.51 23.27155,9.51 13.53778,0 23.15967,-9.39812 9.73377,-9.51001 9.73377,-22.9359 0,-14.43284 -9.62189,-23.83097 -9.62189,-9.39812 -24.05473,-9.39812 -13.31401,0 -22.71214,9.73377 -9.28624,9.62189 -9.28624,23.04779 z"
         id="path4162"
         inkscape:connector-curvature="0" />
    </g>
    <g
       style="font-style:normal;font-variant:normal;font-weight:100;font-stretch:normal;font-size:111.88245392px;line-height:125%;font-family:'AR BONNIE';-inkscape-font-specification:'AR BONNIE Thin';text-align:start;letter-spacing:0px;word-spacing:0px;text-anchor:start;fill:#ff6600;fill-opacity:1;stroke:none;stroke-width:1px;stroke-linecap:butt;stroke-linejoin:miter;stroke-opacity:1"
       id="text4136-7">
      <path
         d="m 264.39484,180.90146 q 0,16.39821 -11.62994,28.02815 -11.62994,11.62993 -28.14445,11.62993 -16.39821,0 -28.14445,-11.39734 -11.62993,-11.51363 -11.62993,-27.91184 0,-16.97971 11.74623,-28.60965 11.74624,-11.62993 28.84224,-11.62993 16.28192,0 27.56295,11.74623 11.39735,11.74624 11.39735,28.14445 z m -73.96641,-0.1163 q 0,14.30482 9.88545,24.19027 9.88545,9.88544 24.19027,9.88544 14.07222,0 24.07397,-9.76914 10.11804,-9.88545 10.11804,-23.84137 0,-15.00262 -10.00174,-24.77177 -10.00175,-9.76914 -25.00436,-9.76914 -13.83963,0 -23.60878,10.11804 -9.65285,10.00174 -9.65285,23.95767 z"
         id="path4159"
         inkscape:connector-curvature="0"
         style="fill:#ffdd55" />
    </g>
  </g>
</svg>
